
<svg xmlns="http://www.w3.org/2000/svg" version="1.1" xmlns:xlink="http://www.w3.org/1999/xlink" preserveAspectRatio="none" x="0px" y="0px" width="320px" height="320px" viewBox="0 0 320 320">
<defs>
<g id="body_0_Layer5_0_FILL">
<path fill="#FFD990" stroke="none" d="
M 193.65 40.1
Q 180.35 28.55 163.65 22.3 146.4 15.8 127.7 15.8 109.35 15.8 92.4 22 76.05 28.05 62.85 39.15 49.75 50.15 41.45 64.8 33 79.8 30.8 96.65 18 117 18 140.1 18 175.9 50.35 192.65 77.9 206.95 127.8 206.95 177.45 206.95 204.45 192.65 236 176 236 140.1 236 118.7 224.95 99.55 223.2 82.25 214.95 66.65 206.85 51.55 193.65 40.1 Z"/>
</g>

<g id="body_0_Layer5_0_MEMBER_0_MEMBER_0_FILL">
<path fill="#FFFFFF" stroke="none" d="
M 158.2 378.6
Q 148.9 384.75 149.7 387.7 168.3 392 193 396.15 224.55 401.45 239.15 401.45 254.85 401.45 287.85 394.95 312.35 390.15 332.85 384.7 333.5 382.05 321.15 376.6 307.8 370.8 306.75 368.65 295.4 345.5 281.95 336.15 266.95 325.8 241.05 325.8 214.6 325.8 197.85 336.4 181.7 346.55 169.75 369.65 168.7 371.65 158.2 378.6 Z"/>
</g>

<g id="body_0_Layer3_0_MEMBER_0_MEMBER_0_MEMBER_0_FILL">
<path fill="#000000" stroke="none" d="
M 297 290.95
Q 293.9 287.8 289.45 287.8 285 287.8 281.85 290.95 278.7 294.1 278.7 298.55 278.7 303 281.85 306.1 285 309.25 289.45 309.25 293.9 309.25 297 306.1 300.15 303 300.15 298.55 300.15 294.1 297 290.95 Z"/>
</g>

<g id="body_0_Layer3_0_MEMBER_0_MEMBER_1_MEMBER_0_FILL">
<path fill="#FFFFFF" stroke="none" d="
M 292.4 290.45
Q 291.2 290.45 290.35 291.3 289.45 292.15 289.45 293.4 289.45 294.6 290.35 295.45 291.2 296.3 292.4 296.3 293.65 296.3 294.5 295.45 295.35 294.6 295.35 293.4 295.35 292.15 294.5 291.3 293.65 290.45 292.4 290.45 Z"/>
</g>

<g id="body_0_Layer3_0_MEMBER_1_MEMBER_0_MEMBER_0_FILL">
<path fill="#000000" stroke="none" d="
M 194.55 287.8
Q 190.1 287.8 187 290.95 183.85 294.1 183.85 298.55 183.85 303 187 306.1 190.15 309.25 194.55 309.25 199 309.25 202.15 306.1 205.3 303 205.3 298.55 205.3 294.1 202.15 290.95 199 287.8 194.55 287.8 Z"/>
</g>

<g id="body_0_Layer3_0_MEMBER_1_MEMBER_1_MEMBER_0_FILL">
<path fill="#FFFFFF" stroke="none" d="
M 197.55 290.45
Q 196.3 290.45 195.45 291.3 194.6 292.15 194.6 293.4 194.6 294.6 195.45 295.45 196.3 296.3 197.55 296.3 198.75 296.3 199.6 295.45 200.45 294.6 200.45 293.4 200.45 292.15 199.6 291.3 198.75 290.45 197.55 290.45 Z"/>
</g>

<g id="body_0_Layer3_0_MEMBER_2_MEMBER_0_MEMBER_0_FILL">
<path fill="#FFFFFF" stroke="none" d="
M 241.2 311.45
Q 238 314.65 238 319.2 238 323.75 241.2 326.95 244.45 330.15 249 330.15 253.55 330.15 256.75 326.95 259.95 323.75 259.95 319.2 259.95 314.65 256.75 311.45 253.55 308.2 249 308.2 244.45 308.2 241.2 311.45 Z"/>
</g>

<g id="body_0_Layer3_0_MEMBER_2_MEMBER_1_MEMBER_0_FILL">
<path fill="#FFFFFF" stroke="none" d="
M 233.45 329.85
Q 238 329.85 241.2 326.65 244.4 323.45 244.4 318.9 244.4 314.35 241.2 311.15 238 307.95 233.45 307.95 228.9 307.95 225.7 311.15 222.5 314.35 222.5 318.9 222.5 323.45 225.7 326.65 228.9 329.85 233.45 329.85 Z"/>
</g>

<g id="body_0_Layer3_0_MEMBER_3_MEMBER_0_FILL">
<path fill="#FF9CBA" stroke="none" d="
M 236.6 308.4
Q 236.05 308.4 235.8 308.85 235.6 309.3 235.85 309.75
L 238.65 314.05
Q 239.35 315.15 240.7 315.15 242.05 315.15 242.75 314.05
L 245.2 310.3
Q 245.6 309.7 245.25 309.05 244.95 308.4 244.15 308.4
L 236.6 308.4 Z"/>
</g>

<g id="body_0_Layer3_0_MEMBER_4_FILL">
<path fill="#333333" stroke="none" d="
M 226 315.4
Q 226.7 313.75 225.7 312.75 224.4 311.5 222.65 314.35 220.85 317.25 220.7 321 220.55 325.4 223.25 327.95 226.5 331.05 233.5 330.5 238.15 330.1 241 325.55
L 241.05 325.55
Q 243.9 330.1 248.55 330.5 255.55 331.05 258.85 327.95 261.5 325.4 261.35 321 261.2 317.25 259.4 314.35 257.65 311.5 256.35 312.75 255.35 313.75 256.05 315.4 256.4 316.3 257.2 317.5 258.6 320.4 257.65 323.1 256.75 325.7 254.15 326.9 247.75 329.8 241.05 321.9
L 241 321.9
Q 234.3 329.8 227.9 326.9 225.3 325.7 224.35 323.1 223.4 320.4 224.8 317.5 225.65 316.3 226 315.4 Z"/>
</g>

<g id="body_0_Layer2_0_FILL">
<path fill="#404040" stroke="none" d="
M 223.9 104
L 202.55 115.25
Q 200.85 116.1 199.85 117.7 198.9 119.25 198.8 121.15 198.75 123.05 199.65 124.7 200.55 126.35 202.1 127.3
L 219.05 137.8 231.95 150.5
Q 233.45 151.95 235.5 152.5 237.55 153 239.55 152.45 241.6 151.9 243.05 150.4 244.5 148.85 245 146.8
L 250.45 124.85
Q 251.75 119.55 250 114.4 248.25 109.25 243.95 105.85 239.65 102.45 234.2 101.95 228.75 101.45 223.9 104 Z"/>
</g>

<g id="body_0_Layer1_0_FILL">
<path fill="#660000" fill-opacity="0.09803921568627451" stroke="none" d="
M 50.8 47.5
Q 51.004296875 48.0130859375 51.15 48.55 53.6099609375 45.9216796875 56.3 43.4 56.9 42.85 57.5 42.3 54.1056640625 44.7484375 50.8 47.5
M 213.75 60.2
L 214.4 63.3
Q 214.8859375 62.7677734375 215.45 62.15 214.630859375 61.192578125 213.75 60.2
M 193.8 42.15
Q 194.45 42.75 195.15 43.4 209.3650390625 56.701953125 216.55 72.7 214.9185546875 66.462890625 213.75 60.2 210.0619140625 56.0380859375 205.8 52.05 200 46.6 193.8 42.15 Z"/>
</g>

<g id="body_0_Layer1_1_FILL">
<path fill="#660000" fill-opacity="0.09803921568627451" stroke="none" d="
M 235.8 120.45
Q 228.913671875 111.2318359375 223.7 101.7 223.95 105.03125 223.95 108.45 223.95 146.5 195.15 173.45 181.5765625 186.1736328125 165.35 192.9 147.208203125 200.4 125.75 200.4 88.5171875 200.4 61.25 177.85 58.74921875 175.7458984375 56.3 173.45 27.55 146.5 27.55 108.45 27.55 104.7353515625 27.8 101.1 27.440234375 101.19765625 27.05 101.25 27.05 101.45 26.95 101.65 26.85 101.85 26.7 102.1 26.65 102.25 26.55 102.35 26.45 102.45 26.25 102.45 26 102.45 25.8 102.45 25.1 103.2 24.9 104.85 24.55 107.95 24 111.15 23.45 114.4 21.7 117.2 20.2 125.85 18.25 134.6 17.157421875 139.4328125 15.15 143.85
L 17.75 160.05
Q 19.9248046875 166.3419921875 22.95 172.3 23.0681640625 172.5171875 23.15 172.7 23.770703125 173.8837890625 24.4 175 25.1189453125 175.6560546875 26.3 175.8 31.15 180.3 36.65 184.25 46.6 191.35 55.4 197.95 69.6 201.9 83.65 204.45 92.7 207.45 103.3 207.55 118.21953125 207.6962890625 132.5 210.05 132.4869140625 208.883984375 132.45 207.7 139.9 208.55 148.1 207.75 163.45 205.75 178.3 202.8 180.5 202.65 182.3 201.75 188.6 198.8 194.7 195.8 200.5 194.75 204.9 191.2 207.55 189.1 209.45 187.2 209.85 187.2 210.25 187.05 216.9724609375 184.174609375 223.55 180.95 224.8396484375 178.980859375 226 176.95 236.3646484375 159.0796875 238.45 138
L 238.1 137.65 237.7 135.2
Q 236.6 134 235.75 132.8 235.2 132.05 235.1 130.75 234.95 129 233.6 128.65 232.7 128.55 232.95 127.6 233.98359375 123.8943359375 235.8 120.45 Z"/>
</g>

<g id="body_0_Layer0_0_FILL">
<path fill="#404040" stroke="none" d="
M 154 245.15
Q 156.05 244.6 157.55 243.15
L 170.45 230.45 187.4 219.95
Q 189 218.95 189.9 217.35 190.8 215.65 190.7 213.8 190.65 211.9 189.65 210.35 188.65 208.75 186.95 207.9
L 165.6 196.65
Q 160.75 194.1 155.3 194.6 149.85 195.1 145.55 198.5 141.25 201.9 139.5 207.05 137.75 212.2 139.05 217.5
L 144.5 239.45
Q 145 241.5 146.45 243.05 147.9 244.55 149.95 245.1 151.95 245.65 154 245.15 Z"/>
</g>

<g id="______2_0_Layer0_0_MEMBER_0_FILL">
<path fill="#FFC0D4" stroke="none" d="
M 209.05 334
Q 205.8 333.3 202.6 334.4 200.85 332.8 198.35 332.45 195.85 332.15 193.5 333.3 191.95 334.1 191.35 336.65 190.7 339.35 191.7 342.25 194.35 349.9 205.55 351.55 216.9 353.2 222.4 347.6 224.4 345.55 225.1 343 225.7 340.7 225 339.3 223.75 336.8 220.95 335.95 218.15 335.15 215.45 336.45
L 214.45 337.05
Q 212.3 334.75 209.05 334 Z"/>
</g>

<g id="______1_0_Layer0_0_MEMBER_0_FILL">
<path fill="#FFC0D4" stroke="none" d="
M 291 342.3
Q 292 339.45 291.4 336.7 290.8 334.15 289.2 333.35 286.9 332.2 284.4 332.5 281.9 332.8 280.15 334.4 276.95 333.3 273.7 334 270.45 334.75 268.25 337.05 267.85 336.7 267.25 336.45 264.6 335.1 261.8 335.9 259 336.75 257.75 339.25 257.05 340.65 257.6 342.95 258.3 345.5 260.3 347.6 265.75 353.15 277.1 351.55 288.3 349.95 291 342.3 Z"/>
</g>

<path id="body_0_Layer4_0_1_STROKES" stroke="#404040" stroke-width="5" stroke-linejoin="round" stroke-linecap="round" fill="none" d="
M 30.778649902343744 96.61653442382811
Q 33.01016845703124 79.75140380859375 41.46419067382813 64.77448120117185 49.74655761718749 50.140869140625 62.83527221679687 39.112017822265614 76.05272827148436 27.997338867187494 92.40289306640626 21.989404296874994 109.35385131835939 15.76690063476562 127.6780517578125 15.76690063476562 146.3884765625 15.76690063476562 163.63983154296875 22.24688720703125 180.33330688476565 28.512304687499977 193.6365905761719 40.056121826171875 206.8540466308594 51.51411132812501 214.92184448242188 66.619775390625 223.2042114257813 82.19749145507811 224.9207641601563 99.53467407226563 235.99252929687498 118.67423706054686 235.99252929687498 140.088232421875 235.99252929687498 175.96418457031248 204.45087280273435 192.61474609375003 177.4580810546875 206.90504760742184 127.80679321289064 206.90504760742184 77.8980224609375 206.90504760742184 50.34735107421875 192.61474609375003 17.990332031250006 175.87835693359378 17.990332031250006 140.088232421875 17.990332031250006 116.95768432617186 30.778649902343744 96.61653442382811 Z"/>
</defs>

<g transform="matrix( 0.92926025390625, 0.369384765625, -0.369384765625, 0.92926025390625, 277.5,53.75) ">
<clipPath id="Mask_Mask_1">
<rect x="-2" y="-2" width="46.95" height="46.75" fill="#FFFFFF" stroke="none"/>
</clipPath>

<text clip-path="url(#Mask_Mask_1)" writing-mode="lr"><tspan x="0" y="37.6" baseline-shift="0%" font-family="ふんわりラウンド" font-size="42.75" fill="#FF9CBA" xml:space="preserve">♥</tspan></text>
</g>

<g transform="matrix( 1, 0, 0, 1, 26.1,86.1) ">
<g transform="matrix( 1, 0, 0, 1, 0,0) ">
<use xlink:href="#body_0_Layer5_0_FILL"/>
</g>

<g transform="matrix( 0.85833740234375, 0, 0, 1.072509765625, -77.45,-219.3) ">
<use xlink:href="#body_0_Layer5_0_MEMBER_0_MEMBER_0_FILL"/>
</g>

<g transform="matrix( 0.8582763671875, 0, 0, 0.8582763671875, -77.45,-137.65) ">
<use xlink:href="#body_0_Layer4_0_1_STROKES" transform="matrix( 1.165130615234375, 0, 0, 1.165130615234375, 90.25,160.4) "/>
</g>

<g transform="matrix( 1, 0, 0, 1, -111.2,-189.6) ">
<use xlink:href="#body_0_Layer3_0_MEMBER_0_MEMBER_0_MEMBER_0_FILL"/>
</g>

<g transform="matrix( 1, 0, 0, 1, -111.2,-189.6) ">
<use xlink:href="#body_0_Layer3_0_MEMBER_0_MEMBER_1_MEMBER_0_FILL"/>
</g>

<g transform="matrix( 1, 0, 0, 1, -111.2,-189.6) ">
<use xlink:href="#body_0_Layer3_0_MEMBER_1_MEMBER_0_MEMBER_0_FILL"/>
</g>

<g transform="matrix( 1, 0, 0, 1, -111.2,-189.6) ">
<use xlink:href="#body_0_Layer3_0_MEMBER_1_MEMBER_1_MEMBER_0_FILL"/>
</g>

<g transform="matrix( 1, 0, 0, 1, -111.2,-189.6) ">
<use xlink:href="#body_0_Layer3_0_MEMBER_2_MEMBER_0_MEMBER_0_FILL"/>
</g>

<g transform="matrix( 1, 0, 0, 1, -111.2,-189.6) ">
<use xlink:href="#body_0_Layer3_0_MEMBER_2_MEMBER_1_MEMBER_0_FILL"/>
</g>

<g transform="matrix( 1, 0, 0, 1, -111.2,-189.6) ">
<use xlink:href="#body_0_Layer3_0_MEMBER_3_MEMBER_0_FILL"/>
</g>

<g transform="matrix( 1, 0, 0, 1, -111.2,-189.6) ">
<use xlink:href="#body_0_Layer3_0_MEMBER_4_FILL"/>
</g>

<g transform="matrix( 1, 0, 0, 1, -30.1,-86.1) ">
<use xlink:href="#body_0_Layer2_0_FILL"/>
</g>

<g transform="matrix( 1, 0, 0, 1, 0,0) ">
<use xlink:href="#body_0_Layer1_0_FILL"/>
</g>

<g transform="matrix( 1, 0, 0, 1, 0,0) ">
<use xlink:href="#body_0_Layer1_1_FILL"/>
</g>

<g transform="matrix( 1, 0, 0, 1, -101.2,-178.75) ">
<use xlink:href="#body_0_Layer0_0_FILL"/>
</g>
</g>

<g transform="matrix( 1, 0, 0, 1, 133.15,249.5) ">
<g transform="matrix( -0.965301513671875, 0.258514404296875, -0.25860595703125, -0.965545654296875, 289.25,276.45) ">
<use xlink:href="#______2_0_Layer0_0_MEMBER_0_FILL"/>
</g>
</g>

<g transform="matrix( 1, 0, 0, 1, 179.35,249.5) ">
<g transform="matrix( -0.9656982421875, -0.2587890625, 0.2587890625, -0.9656982421875, 176.8,401.35) ">
<use xlink:href="#______1_0_Layer0_0_MEMBER_0_FILL"/>
</g>
</g>
</svg>
