<?xml version="1.0" standalone="no"?>
<!DOCTYPE svg PUBLIC "-//W3C//DTD SVG 1.1//EN" "http://www.w3.org/Graphics/SVG/1.1/DTD/svg11.dtd">
<svg width="100%" height="100%" viewBox="0 0 596 842" version="1.1" xmlns="http://www.w3.org/2000/svg" xmlns:xlink="http://www.w3.org/1999/xlink" xml:space="preserve" style="fill-rule:evenodd;clip-rule:evenodd;stroke-linecap:round;stroke-linejoin:round;stroke-miterlimit:1.41421;">
    <g transform="matrix(0.24,0,0,0.24,-0,-0)">
        <path d="M444.885,1208.96C476.003,973.848 688.211,791.706 945.016,791.706C1207.25,791.706 1422.99,981.633 1446.88,1223.94C1483.41,1287.17 1503.92,1358.25 1503.92,1433.35C1503.92,1696.63 1256.13,1778.28 945.643,1778.28C635.157,1778.28 378.795,1696.63 378.795,1433.35C378.795,1352.25 402.711,1275.86 444.885,1208.96Z" style="fill:rgb(255,242,181);"/>
        <g transform="matrix(1,0,0,0.96846,0,56.0872)">
            <path d="M549.476,1715.31C543.133,1691.02 626.488,1656.04 638.22,1632.67C707.549,1494.57 795.196,1432.17 954.073,1432.17C1112.95,1432.17 1181.05,1493.14 1245.14,1628.26C1255.56,1650.23 1366.23,1678.92 1360.73,1701.65C1276.89,1724.5 1051.29,1778.28 945.643,1778.28C848.351,1778.28 629.916,1734.42 549.476,1715.31Z" style="fill:white;"/>
        </g>
        <g>
            <g transform="matrix(1,0,0,1,0,80)">
                <circle cx="1168.41" cy="1242.34" r="47.491" style="fill:black;"/>
            </g>
            <g transform="matrix(1,0,0,1,-4.97751,10.1787)">
                <circle cx="1186.52" cy="1289.32" r="13.022" style="fill:white;"/>
            </g>
        </g>
        <g transform="matrix(1,0,0,1,-420.264,0)">
            <g transform="matrix(1,0,0,1,0,80)">
                <circle cx="1168.41" cy="1242.34" r="47.491" style="fill:black;"/>
            </g>
            <g transform="matrix(1,0,0,1,-4.97751,10.1787)">
                <circle cx="1186.52" cy="1289.32" r="13.022" style="fill:white;"/>
            </g>
        </g>
        <g transform="matrix(-1.29788,7.3532e-16,-7.3532e-16,-1.29788,2178.29,3120.06)">
            <g transform="matrix(1,0,0,1,-4.32937,-13.3065)">
                <circle cx="920.52" cy="1327.98" r="37.412" style="fill:white;"/>
            </g>
            <g transform="matrix(1,0,0,1,48.6521,-12.3065)">
                <circle cx="920.52" cy="1327.98" r="37.412" style="fill:white;"/>
            </g>
        </g>
        <g transform="matrix(-1.66481,5.35444e-16,-5.35444e-16,-1.66481,2543.22,3562.58)">
            <path d="M950.041,1304.41C951.245,1302.56 953.304,1301.45 955.512,1301.45C957.721,1301.45 959.779,1302.56 960.983,1304.41C963.529,1308.33 966.422,1312.78 968.386,1315.8C968.848,1316.51 968.885,1317.41 968.48,1318.16C968.076,1318.91 967.296,1319.37 966.449,1319.37C961.18,1319.37 952.181,1319.37 946.241,1319.37C945.062,1319.37 943.978,1318.72 943.415,1317.69C942.853,1316.65 942.903,1315.39 943.546,1314.4C945.433,1311.5 947.864,1307.76 950.041,1304.41Z" style="fill:rgb(255,156,186);"/>
        </g>
        <g transform="matrix(1.35913,0.684115,-0.684115,1.35913,520.719,-1329.6)">
            <path d="M1186.64,1470.86C1189.88,1462.33 1198.59,1456.22 1208.82,1456.22C1221.81,1456.22 1242.08,1490.89 1201.09,1519.38C1159.35,1548.38 1134.63,1523.61 1134.63,1512.71C1134.63,1501.81 1144.1,1492.96 1155.76,1492.96C1156.9,1492.96 1158.02,1493.05 1159.11,1493.21C1162.64,1481.45 1173.41,1472.51 1186.64,1470.86Z" style="fill:rgb(255,192,212);"/>
        </g>
        <path d="M953.93,1425.79L953.961,1425.75C996.092,1475.41 1042.81,1441.54 1025.68,1406.22C1023.89,1402.54 1014.74,1392.27 1021.79,1385.34C1036.66,1370.73 1077.37,1471.01 987.228,1463.89C974.209,1462.86 962.375,1455.47 953.982,1441.95L953.973,1441.95L953.965,1441.96C953.959,1441.96 953.947,1441.96 953.93,1441.96C953.913,1441.96 953.901,1441.96 953.894,1441.96L953.887,1441.95L953.878,1441.95C945.485,1455.47 933.65,1462.86 920.632,1463.89C830.495,1471.01 871.203,1370.73 886.07,1385.34C893.12,1392.27 883.965,1402.54 882.182,1406.22C865.054,1441.54 911.768,1475.41 953.898,1425.75L953.93,1425.79Z" style="fill:rgb(51,51,51);"/>
        <g transform="matrix(-1.3621,0.678173,0.678173,1.3621,1402.5,-1327.03)">
            <path d="M1186.64,1470.86C1189.88,1462.33 1198.59,1456.22 1208.82,1456.22C1221.81,1456.22 1242.08,1490.89 1201.09,1519.38C1159.35,1548.38 1134.63,1523.61 1134.63,1512.71C1134.63,1501.81 1144.1,1492.96 1155.76,1492.96C1156.9,1492.96 1158.02,1493.05 1159.11,1493.21C1162.64,1481.45 1173.41,1472.51 1186.64,1470.86Z" style="fill:rgb(255,192,212);"/>
        </g>
        <path d="M444.885,1208.96C476.003,973.848 688.211,791.706 945.016,791.706C1207.25,791.706 1422.99,981.633 1446.88,1223.94C1483.41,1287.17 1503.92,1358.25 1503.92,1433.35C1503.92,1696.63 1256.13,1778.28 945.643,1778.28C635.157,1778.28 378.795,1696.63 378.795,1433.35C378.795,1352.25 402.711,1275.86 444.885,1208.96Z" style="fill:none;stroke-width:20.83px;stroke:rgb(64,64,64);"/>
        <g transform="matrix(0.786776,0.617238,-0.989421,1.26119,1297.78,-1092.62)">
            <path d="M1178.46,980.231C1191.69,961.865 1220.96,950.05 1253.23,950.05C1285.51,950.05 1314.78,961.865 1328,980.231C1342.85,1000.86 1357.44,1021.11 1369.1,1037.31C1374.19,1044.37 1372.81,1052.6 1365.49,1058.85C1358.17,1065.11 1346.04,1068.43 1333.71,1067.57C1295.8,1064.9 1254,1061.96 1254,1061.96C1254,1061.96 1206.19,1065.28 1166.16,1068.07C1155.17,1068.83 1144.37,1065.86 1137.85,1060.29C1131.33,1054.71 1130.11,1047.38 1134.64,1041.09C1146.71,1024.33 1162.43,1002.49 1178.46,980.231Z" style="fill:rgb(64,64,64);"/>
        </g>
        <g transform="matrix(-0.786776,0.617238,0.989421,1.26119,577.147,-1092.62)">
            <path d="M1178.46,980.231C1191.69,961.865 1220.96,950.05 1253.23,950.05C1285.51,950.05 1314.78,961.865 1328,980.231C1342.85,1000.86 1357.44,1021.11 1369.1,1037.31C1374.19,1044.37 1372.81,1052.6 1365.49,1058.85C1358.17,1065.11 1346.04,1068.43 1333.71,1067.57C1295.8,1064.9 1254,1061.96 1254,1061.96C1254,1061.96 1206.19,1065.28 1166.16,1068.07C1155.17,1068.83 1144.37,1065.86 1137.85,1060.29C1131.33,1054.71 1130.11,1047.38 1134.64,1041.09C1146.71,1024.33 1162.43,1002.49 1178.46,980.231Z" style="fill:rgb(64,64,64);"/>
        </g>
        <g transform="matrix(1.65223,0.656787,-0.636226,1.6005,-469.758,-1255.22)">
            <text x="1448.39px" y="824.396px" style="font-family:'funwariround';font-size:50px;fill:rgb(255,156,186);">♥</text>
        </g>
        <g transform="matrix(2.71199,1.07806,-1.04431,2.62709,-1658.97,-2799.13)">
            <text x="1448.39px" y="824.396px" style="font-family:'funwariround';font-size:50px;fill:rgb(255,156,186);">♥</text>
        </g>
        <g transform="matrix(3.57808,1.42234,-1.37782,3.46607,-2615.59,-4114.11)">
            <text x="1448.39px" y="824.396px" style="font-family:'funwariround';font-size:50px;fill:rgb(255,156,186);">♥</text>
        </g>
    </g>
</svg>
