
<svg xmlns="http://www.w3.org/2000/svg" version="1.1" xmlns:xlink="http://www.w3.org/1999/xlink" preserveAspectRatio="none" x="0px" y="0px" width="320px" height="320px" viewBox="0 0 320 320">
<defs>
<g id="Layer11_0_FILL">
<path fill="#1ED300" stroke="none" d="
M 760.5 -0.1
Q 724.1 -86.1 657.75 -152.45 591.4 -218.8 505.35 -255.2 416.3 -292.85 318.8 -292.85 221.25 -292.85 132.2 -255.2 46.2 -218.8 -20.15 -152.45 -86.5 -86.1 -122.9 -0.1 -160.55 88.95 -160.55 186.5 -160.55 284 -122.9 373.1 -86.5 459.1 -20.15 525.45 46.2 591.8 132.2 628.2 221.25 665.85 318.8 665.85 416.3 665.85 505.35 628.2 591.4 591.8 657.75 525.45 724.1 459.1 760.5 373.1 798.15 284 798.15 186.5 798.15 88.95 760.5 -0.1 Z"/>
</g>

<g id="Layer10_0_MEMBER_0_FILL">
<path fill="#FFFFFF" stroke="none" d="
M 318.75 -270.15
Q 237.35 -270.15 163.05 -238.7 91.3 -208.35 35.95 -153 -19.4 -97.6 -49.75 -25.85 -81.2 48.45 -81.2 129.85 -81.2 211.25 -49.75 285.55 -19.4 357.3 35.95 412.7 91.3 468.05 163.05 498.4 237.35 529.85 318.75 529.85 400.15 529.85 474.45 498.4 546.25 468.05 601.65 412.7 657 357.3 687.35 285.55 718.8 211.25 718.8 129.85 718.8 48.45 687.35 -25.85 657 -97.65 601.65 -153 546.25 -208.35 474.45 -238.7 400.15 -270.15 318.75 -270.15 Z"/>
</g>

<g id="Layer9_0_MEMBER_0_MEMBER_0_FILL">
<path fill="#24FF00" stroke="none" d="
M 45.65 447.95
Q 43.45 448.3 42.15 450.05
L 0.5 505.25
Q -0.8 507 -0.45 509.2 -0.15 511.4 1.55 512.7
L 10.05 519.15
Q 11.8 520.45 14 520.15 16.2 519.85 17.55 518.1
L 59.15 462.9
Q 60.5 461.15 60.2 458.95 59.9 456.75 58.15 455.4
L 49.6 449
Q 47.85 447.65 45.65 447.95 Z"/>
</g>

<g id="Layer9_0_MEMBER_1_MEMBER_0_FILL">
<path fill="#159200" stroke="none" d="
M 45.6 447.1
Q 44.3 447.3 43.5 448.4
L -0.65 506.95
Q -1.45 508 -1.25 509.35 -1.05 510.65 0 511.45
L 5.1 515.35
Q 6.2 516.15 7.5 515.95 8.85 515.8 9.65 514.7
L 53.8 456.15
Q 54.65 455.1 54.45 453.75 54.25 452.45 53.15 451.65
L 48 447.75
Q 46.95 446.95 45.6 447.1 Z"/>
</g>

<g id="Layer8_0_MEMBER_0_MEMBER_0_FILL">
<path fill="#24FF00" stroke="none" d="
M 125.8 503.85
Q 123.8 502.9 121.7 503.65 119.65 504.4 118.7 506.4
L 89.3 569
Q 88.35 571 89.1 573.1 89.85 575.15 91.85 576.1
L 101.5 580.65
Q 103.5 581.6 105.6 580.85 107.65 580.05 108.6 578.05
L 138 515.5
Q 138.95 513.5 138.2 511.4 137.45 509.35 135.45 508.4
L 125.8 503.85 Z"/>
</g>

<g id="Layer8_0_MEMBER_1_MEMBER_0_FILL">
<path fill="#159200" stroke="none" d="
M 123.95 502.95
Q 122.75 502.4 121.5 502.85 120.2 503.3 119.65 504.5
L 88.5 570.9
Q 87.9 572.1 88.35 573.35 88.8 574.65 90.05 575.2
L 95.9 577.95
Q 97.1 578.5 98.35 578.05 99.6 577.6 100.2 576.4
L 131.35 510
Q 131.9 508.8 131.45 507.55 131 506.25 129.8 505.7
L 123.95 502.95 Z"/>
</g>

<g id="Layer7_0_MEMBER_0_MEMBER_0_FILL">
<path fill="#24FF00" stroke="none" d="
M 209.4 548.65
Q 207.5 549.7 206.85 551.8
L 187.5 618.2
Q 186.85 620.3 187.95 622.25 189 624.15 191.1 624.8
L 201.35 627.8
Q 203.45 628.4 205.4 627.35 207.35 626.3 207.95 624.15
L 227.35 557.8
Q 227.95 555.65 226.9 553.75 225.85 551.8 223.7 551.15
L 213.45 548.2
Q 211.35 547.55 209.4 548.65 Z"/>
</g>

<g id="Layer7_0_MEMBER_1_MEMBER_0_FILL">
<path fill="#159200" stroke="none" d="
M 209.05 547.85
Q 207.85 548.5 207.5 549.8
L 187 620.2
Q 186.65 621.5 187.25 622.65 187.9 623.85 189.15 624.2
L 195.4 626
Q 196.65 626.4 197.85 625.75 199.05 625.1 199.4 623.8
L 219.95 553.4
Q 220.35 552.15 219.7 550.95 219.05 549.8 217.75 549.4
L 211.55 547.6
Q 210.25 547.2 209.05 547.85 Z"/>
</g>

<g id="Layer6_0_MEMBER_0_MEMBER_0_FILL">
<path fill="#24FF00" stroke="none" d="
M 302.3 563.25
Q 300.75 564.85 300.8 567.05
L 302.4 636.15
Q 302.45 638.35 304.05 639.9 305.65 641.4 307.85 641.35
L 318.5 641.1
Q 320.7 641.05 322.25 639.45 323.8 637.85 323.7 635.65
L 322.15 566.55
Q 322.1 564.35 320.5 562.8 318.85 561.3 316.7 561.35
L 306 561.55
Q 303.8 561.65 302.3 563.25 Z"/>
</g>

<g id="Layer6_0_MEMBER_1_MEMBER_0_FILL">
<path fill="#159200" stroke="none" d="
M 301.75 562.6
Q 300.8 563.55 300.85 564.9
L 302.5 638.2
Q 302.55 639.55 303.5 640.45 304.5 641.4 305.8 641.35
L 312.3 641.2
Q 313.6 641.2 314.55 640.25 315.5 639.25 315.45 637.9
L 313.75 564.6
Q 313.7 563.25 312.75 562.35 311.8 561.4 310.45 561.45
L 304 561.6
Q 302.65 561.6 301.75 562.6 Z"/>
</g>

<g id="Layer5_0_MEMBER_0_MEMBER_0_FILL">
<path fill="#24FF00" stroke="none" d="
M 402 560.3
Q 401.05 562.25 401.75 564.35
L 424 629.8
Q 424.7 631.9 426.7 632.9 428.65 633.85 430.75 633.15
L 440.85 629.7
Q 442.95 629 443.95 627 444.9 625.05 444.2 622.95
L 421.95 557.5
Q 421.25 555.4 419.25 554.4 417.25 553.45 415.2 554.15
L 405.1 557.6
Q 403 558.3 402 560.3 Z"/>
</g>

<g id="Layer5_0_MEMBER_1_MEMBER_0_FILL">
<path fill="#159200" stroke="none" d="
M 401.3 559.85
Q 400.7 561.05 401.15 562.3
L 424.75 631.75
Q 425.15 633.05 426.35 633.6 427.6 634.2 428.85 633.75
L 434.95 631.7
Q 436.25 631.25 436.8 630.05 437.4 628.85 436.95 627.6
L 413.35 558.15
Q 412.95 556.9 411.75 556.3 410.55 555.7 409.3 556.1
L 403.15 558.2
Q 401.85 558.65 401.3 559.85 Z"/>
</g>

<g id="Layer4_0_MEMBER_0_MEMBER_0_FILL">
<path fill="#24FF00" stroke="none" d="
M 497.65 528.8
Q 497 530.9 498 532.85
L 530.3 594
Q 531.3 595.95 533.45 596.6 535.55 597.25 537.5 596.25
L 546.9 591.25
Q 548.85 590.25 549.5 588.1 550.15 586 549.15 584.05
L 516.85 522.9
Q 515.85 520.95 513.7 520.3 511.6 519.65 509.65 520.7
L 500.25 525.65
Q 498.3 526.7 497.65 528.8 Z"/>
</g>

<g id="Layer4_0_MEMBER_1_MEMBER_0_FILL">
<path fill="#159200" stroke="none" d="
M 496.85 528.45
Q 496.45 529.75 497.05 530.95
L 531.3 595.8
Q 531.95 596.95 533.2 597.4 534.5 597.8 535.7 597.15
L 541.4 594.15
Q 542.55 593.5 543 592.25 543.4 590.95 542.75 589.75
L 508.5 524.9
Q 507.85 523.75 506.6 523.35 505.3 522.95 504.15 523.55
L 498.4 526.55
Q 497.25 527.2 496.85 528.45 Z"/>
</g>

<g id="Layer3_0_MEMBER_0_MEMBER_0_FILL">
<path fill="#24FF00" stroke="none" d="
M 576.45 471.5
Q 576.2 473.7 577.6 475.4
L 620.75 529.45
Q 622.15 531.15 624.35 531.4 626.5 531.65 628.25 530.3
L 636.55 523.65
Q 638.3 522.25 638.55 520.05 638.8 517.85 637.4 516.15
L 594.25 462.1
Q 592.9 460.4 590.7 460.15 588.5 459.9 586.75 461.3
L 578.45 467.95
Q 576.7 469.3 576.45 471.5 Z"/>
</g>

<g id="Layer3_0_MEMBER_1_MEMBER_0_FILL">
<path fill="#159200" stroke="none" d="
M 575.65 471.35
Q 575.5 472.65 576.3 473.7
L 622.1 531
Q 622.95 532.05 624.25 532.2 625.6 532.35 626.65 531.5
L 631.7 527.5
Q 632.75 526.7 632.9 525.35 633.05 524 632.2 522.95
L 586.4 465.65
Q 585.55 464.6 584.25 464.45 582.9 464.3 581.9 465.15
L 576.85 469.15
Q 575.8 470 575.65 471.35 Z"/>
</g>

<g id="ham_0_Layer14_0_MEMBER_0_FILL">
<path fill="#FFC0D4" stroke="none" d="
M 510.7 571.85
Q 515.65 575.25 521.85 575.2 528 575.2 533.25 571.8 533.9 572.65 534.65 573.3 538.55 576.85 544 576.45 549.4 576 553.15 571.9 555.25 569.6 555.6 565.15 556 560.15 553.7 555.5 547.5 543.05 526.55 541.5 505.8 540 496.35 553.05 492.8 557.9 492.25 563.2 491.75 568.15 494.05 570.25 497.45 573.35 502.1 573.75 506.65 574.15 510.7 571.85 Z"/>
</g>

<g id="ham_0_Layer13_0_MEMBER_0_FILL">
<path fill="#FFC0D4" stroke="none" d="
M 301.4 537.65
Q 300.05 541.55 301.1 544.1 303 548.65 307.8 550.45 312.55 552.25 317.45 550.25 318.55 549.75 319.25 549.3 322.8 553.65 328.35 555.3 333.95 557 339.75 555.45 342.65 558.5 346.9 559.35 351.3 560.25 355.5 558.5 358.35 557.3 359.75 552.9 361.25 548.2 359.85 543.05 356.15 529.3 336.65 525.05 316.95 520.75 306.7 529.85 302.9 533.2 301.4 537.65 Z"/>
</g>

<g id="ham_0_Layer12_0_MEMBER_0_FILL">
<path fill="#404040" stroke="none" d="
M 144.05 271.9
Q 133.9 272.8 125.9 279.05 117.9 285.35 114.6 294.95 111.3 304.55 113.75 314.4
L 123.9 355.25
Q 124.85 359.05 127.55 361.85 130.25 364.65 134.05 365.7 137.8 366.8 141.6 365.8 145.35 364.85 148.15 362.1
L 172.15 338.5 203.65 318.95
Q 206.6 317.15 208.25 314.05 209.9 311 209.8 307.5 209.65 304.05 207.8 301.1 205.95 298.15 202.85 296.55
L 163.15 275.65
Q 154.15 270.95 144.05 271.9 Z"/>
</g>

<g id="ham_0_Layer11_0_MEMBER_0_FILL">
<path fill="#FFD990" stroke="none" d="
M 458.1 307.7
Q 429.95 286.35 394.65 274.8 358.1 262.8 318.45 262.8 279.6 262.8 243.7 274.3 209 285.45 181.1 305.95 153.25 326.4 135.8 353.4 117.9 381.1 113.15 412.3 99.95 430.55 93.1 450.55 86.05 471.2 86.05 492.65 86.05 558.8 154.6 589.8 213 616.2 318.7 616.2 423.85 616.2 481.05 589.8 547.85 558.95 547.85 492.65 547.85 472.8 541.75 453.55 535.85 434.9 524.45 417.65 520.8 385.55 503.25 356.85 486.15 328.9 458.1 307.7 Z"/>
</g>

<g id="ham_0_Layer10_0_MEMBER_0_FILL">
<path fill="#FFFFFF" stroke="none" d="
M 203.5 495.55
Q 181.3 495.05 167.25 500.9 157.15 505.15 147.65 514.85 145.05 517.55 140 523.05 135.35 527.9 131.55 531 120.85 539.55 105.8 542.8 100.8 543.85 126.85 565.9 142.95 579.55 146.4 582.65 155.9 591.15 156.75 593.9 169.05 596.35 196.4 604.9 218.8 611.9 241.3 614.7 262.3 617.35 294.25 617.85 335.75 618.55 373.9 614.75 481.25 604.05 524 562.55 438.4 560 382 549.3 340.55 541.4 307.8 527.2 300.45 524 283.7 515.9 270 509.3 261.6 506.05 236.35 496.4 203.5 495.55 Z"/>
</g>

<g id="ham_0_Layer9_0_MEMBER_0_MEMBER_0_FILL">
<path fill="#000000" stroke="none" d="
M 307.85 434.5
Q 302.3 428.95 294.5 428.95 286.7 428.95 281.2 434.5 275.65 440 275.65 447.8 275.65 455.6 281.2 461.15 286.7 466.65 294.5 466.65 302.3 466.65 307.85 461.15 313.35 455.6 313.35 447.8 313.35 440 307.85 434.5 Z"/>
</g>

<g id="ham_0_Layer9_0_MEMBER_1_MEMBER_0_FILL">
<path fill="#FFFFFF" stroke="none" d="
M 299.7 433.55
Q 297.55 433.55 296.05 435.1 294.55 436.6 294.55 438.75 294.55 440.9 296.05 442.4 297.55 443.9 299.7 443.9 301.85 443.9 303.4 442.4 304.9 440.9 304.9 438.75 304.9 436.6 303.4 435.1 301.85 433.55 299.7 433.55 Z"/>
</g>

<g id="ham_0_Layer8_0_MEMBER_0_MEMBER_0_FILL">
<path fill="#000000" stroke="none" d="
M 141.65 423.45
Q 134.55 423.45 129.5 429 124.45 434.5 124.45 442.3 124.45 450.1 129.5 455.65 134.55 461.15 141.65 461.15 148.75 461.15 153.8 455.65 158.85 450.1 158.85 442.3 158.85 434.5 153.8 429 148.75 423.45 141.65 423.45 Z"/>
</g>

<g id="ham_0_Layer8_0_MEMBER_1_MEMBER_0_FILL">
<path fill="#FFFFFF" stroke="none" d="
M 146.4 428.05
Q 144.45 428.05 143.1 429.6 141.7 431.1 141.7 433.25 141.7 435.4 143.1 436.9 144.45 438.4 146.4 438.4 148.35 438.4 149.75 436.9 151.1 435.4 151.1 433.25 151.1 431.1 149.75 429.6 148.35 428.05 146.4 428.05 Z"/>
</g>

<g id="ham_0_Layer6_0_MEMBER_0_MEMBER_0_FILL">
<path fill="#FFFFFF" stroke="none" d="
M 235.85 490
Q 235.85 482 230.2 476.4 224.6 470.75 216.6 470.75 208.6 470.75 203 476.4 197.35 482 197.35 490 197.35 498 203 503.65 208.6 509.3 216.6 509.3 224.6 509.3 230.2 503.65 235.85 498 235.85 490 Z"/>
</g>

<g id="ham_0_Layer6_0_MEMBER_1_MEMBER_0_FILL">
<path fill="#FFFFFF" stroke="none" d="
M 189.35 470.25
Q 181.35 470.25 175.7 475.9 170.05 481.5 170.05 489.5 170.05 497.5 175.7 503.1 181.35 508.75 189.35 508.75 197.3 508.75 202.95 503.1 208.6 497.5 208.6 489.5 208.6 481.5 202.95 475.9 197.3 470.25 189.35 470.25 Z"/>
</g>

<g id="ham_0_Layer5_0_MEMBER_0_FILL">
<path fill="#FF9CBA" stroke="none" d="
M 196.8 471.1
Q 195.2 471.1 194.5 472.45 193.8 473.8 194.6 475.1
L 197 478.8
Q 197.8 480.05 199.15 480.8 200.5 481.5 202.05 481.5 205.3 481.5 207.1 478.8
L 207.1 478.75
Q 207.85 477.65 207.9 476.25 207.95 474.9 207.3 473.7 205.85 471.1 202.9 471.1
L 196.8 471.1 Z"/>
</g>

<g id="ham_0_Layer4_0_MEMBER_0_FILL">
<path fill="#333333" stroke="none" d="
M 174.15 487
Q 175.6 484.9 176.25 483.35 177.45 480.5 175.7 478.75 173.45 476.55 170.3 481.55 167.15 486.65 166.95 493.2 166.65 500.95 171.35 505.4 177.1 510.85 189.4 509.9 197.55 509.25 202.6 501.2
L 202.65 501.2
Q 205.1 505.15 208.55 507.4 211.9 509.6 215.85 509.9 228.15 510.85 233.9 505.4 238.6 500.95 238.3 493.2 238.1 486.65 234.95 481.55 231.8 476.55 229.55 478.75 227.8 480.5 229 483.35 229.65 484.9 231.1 487 233.6 492.15 231.85 496.9 230.25 501.5 225.7 503.55 220.85 505.7 215.1 503.85 208.55 501.7 202.65 494.75
L 202.6 494.8 202.6 494.75
Q 196.7 501.7 190.15 503.85 184.4 505.7 179.55 503.55 175 501.5 173.4 496.9 171.65 492.15 174.15 487 Z"/>
</g>

<g id="ham_0_Layer3_0_MEMBER_0_FILL">
<path fill="#404040" stroke="none" d="
M 360.9 266.85
Q 350.85 267.75 340.75 273.05
L 301 293.9
Q 297.9 295.55 296.05 298.5 294.2 301.45 294.1 304.9 293.95 308.4 295.6 311.45 297.25 314.5 300.2 316.35
L 331.75 335.9 355.7 359.5
Q 358.5 362.25 362.3 363.2 366.1 364.2 369.85 363.1 373.6 362.05 376.3 359.25 379 356.45 379.95 352.65
L 390.1 311.8
Q 392.75 301.2 390.3 289.95 387.65 277.6 380.1 271.65 372.7 265.85 360.9 266.85 Z"/>
</g>

<g id="ham_0_Layer2_0_MEMBER_0_FILL">
<path fill="#FFC0D4" stroke="none" d="
M 241.15 574.9
Q 240.6 579.45 242.75 581.7 245.9 585.05 250.25 586 254.5 586.95 258.4 585.3 263.05 589.1 268.85 589.85 274.65 590.55 279.6 588 280.4 589.1 280.9 589.6 284.55 593.45 289.65 593.7 294.75 594 298.35 590.6 300.35 588.7 300.7 584.6 301.15 579.95 299 575.3 293.3 562.85 273.55 558.8 254.05 554.8 245.05 565.85 241.7 570 241.15 574.9 Z"/>
</g>

<g id="ham_0_Layer1_0_MEMBER_0_FILL">
<path fill="#FFC0D4" stroke="none" d="
M 111.25 580.35
Q 114.8 584.7 120.35 586.35 126 588.05 131.8 586.45 134.65 589.55 138.95 590.4 143.3 591.3 147.55 589.5 150.4 588.3 151.8 583.9 153.25 579.25 151.85 574.05 148.15 560.3 128.65 556.05 108.95 551.8 98.7 560.9 94.9 564.25 93.4 568.7 92.05 572.6 93.1 575.15 95 579.7 99.8 581.5 104.6 583.3 109.45 581.25 110.45 580.9 111.25 580.35 Z"/>
</g>

<path id="ham_0_Layer7_0_MEMBER_0_1_STROKES" stroke="#404040" stroke-width="5" stroke-linejoin="round" stroke-linecap="round" fill="none" d="
M 14.279165649414068 78.69668579101562
Q 16.78027954101563 62.26831665039063 26.20552978515626 47.68287353515623 35.39383239746094 33.46601562499998 50.058258056640625 22.69806213378905 64.74901123046875 11.903781127929676 83.02030639648437 6.032745361328125 101.92346191406251 -0.0225830078125 122.37994079589843 -0.0225830078125 143.25765991210938 -0.0225830078125 162.50307312011716 6.2960205078125 181.09029846191407 12.377676391601568 195.91268920898438 23.619525146484364 210.6824249267578 34.78239135742186 219.68643493652343 49.49947204589844 228.92739257812497 64.61146545410156 230.84930114746095 81.51372985839842 236.8519744873047 90.59672241210936 239.9586212158203 100.41688537597656 243.1705780029297 110.552978515625 243.1705780029297 121.00500183105467 243.1705780029297 155.91528625488283 207.9970184326172 172.15936279296872 177.8783416748047 186.06029052734377 122.51157836914062 186.06029052734377 66.85521240234375 186.06029052734377 36.10467529296875 172.15936279296872 0.009652709960938921 155.83630371093747 0.009652709960938921 121.00500183105467 0.009652709960938921 109.71049804687499 3.721832275390625 98.83723449707031 7.328701782226567 88.30622863769531 14.279165649414068 78.69668579101562 Z"/>
</defs>

<g transform="matrix( 0.52655029296875, 0, 0, 0.52655029296875, 0.85,-30.6) ">
<use xlink:href="#Layer11_0_FILL"/>
</g>

<g transform="matrix( 0.52655029296875, 0, 0, 0.52655029296875, 0.85,-30.6) ">
<use xlink:href="#Layer10_0_MEMBER_0_FILL"/>
</g>

<g transform="matrix( 0.52655029296875, 0, 0, 0.52655029296875, 13,-20.45) ">
<use xlink:href="#Layer9_0_MEMBER_0_MEMBER_0_FILL"/>
</g>

<g transform="matrix( 0.52655029296875, 0, 0, 0.52655029296875, 13,-20.45) ">
<use xlink:href="#Layer9_0_MEMBER_1_MEMBER_0_FILL"/>
</g>

<g transform="matrix( 0.52655029296875, 0, 0, 0.52655029296875, 17.1,-20.3) ">
<use xlink:href="#Layer8_0_MEMBER_0_MEMBER_0_FILL"/>
</g>

<g transform="matrix( 0.52655029296875, 0, 0, 0.52655029296875, 17.1,-20.3) ">
<use xlink:href="#Layer8_0_MEMBER_1_MEMBER_0_FILL"/>
</g>

<g transform="matrix( 0.52655029296875, 0, 0, 0.52655029296875, 17.1,-23.25) ">
<use xlink:href="#Layer7_0_MEMBER_0_MEMBER_0_FILL"/>
</g>

<g transform="matrix( 0.52655029296875, 0, 0, 0.52655029296875, 17.1,-23.25) ">
<use xlink:href="#Layer7_0_MEMBER_1_MEMBER_0_FILL"/>
</g>

<g transform="matrix( 0.52655029296875, 0, 0, 0.52655029296875, 18.1,-30.6) ">
<use xlink:href="#Layer6_0_MEMBER_0_MEMBER_0_FILL"/>
</g>

<g transform="matrix( 0.52655029296875, 0, 0, 0.52655029296875, 18.1,-30.6) ">
<use xlink:href="#Layer6_0_MEMBER_1_MEMBER_0_FILL"/>
</g>

<g transform="matrix( 0.52655029296875, 0, 0, 0.52655029296875, 20.55,-37.35) ">
<use xlink:href="#Layer5_0_MEMBER_0_MEMBER_0_FILL"/>
</g>

<g transform="matrix( 0.52655029296875, 0, 0, 0.52655029296875, 20.55,-37.35) ">
<use xlink:href="#Layer5_0_MEMBER_1_MEMBER_0_FILL"/>
</g>

<g transform="matrix( 0.52655029296875, 0, 0, 0.52655029296875, 12,-39.7) ">
<use xlink:href="#Layer4_0_MEMBER_0_MEMBER_0_FILL"/>
</g>

<g transform="matrix( 0.52655029296875, 0, 0, 0.52655029296875, 12,-39.7) ">
<use xlink:href="#Layer4_0_MEMBER_1_MEMBER_0_FILL"/>
</g>

<g transform="matrix( 0.52655029296875, 0, 0, 0.52655029296875, 10.85,-37.6) ">
<use xlink:href="#Layer3_0_MEMBER_0_MEMBER_0_FILL"/>
</g>

<g transform="matrix( 0.52655029296875, 0, 0, 0.52655029296875, 10.85,-37.6) ">
<use xlink:href="#Layer3_0_MEMBER_1_MEMBER_0_FILL"/>
</g>

<g transform="matrix( 1, 0, 0, 1, 46.15,107.8) ">
<g transform="matrix( 0.52655029296875, 0, 0, 0.52655029296875, -67.6,-138.4) ">
<use xlink:href="#ham_0_Layer14_0_MEMBER_0_FILL"/>
</g>

<g transform="matrix( 0.52655029296875, 0, 0, 0.52655029296875, -45.3,-138.4) ">
<use xlink:href="#ham_0_Layer13_0_MEMBER_0_FILL"/>
</g>

<g transform="matrix( 0.52655029296875, 0, 0, 0.52655029296875, -45.3,-138.4) ">
<use xlink:href="#ham_0_Layer12_0_MEMBER_0_FILL"/>
</g>

<g transform="matrix( 0.52655029296875, 0, 0, 0.52655029296875, -45.3,-138.4) ">
<use xlink:href="#ham_0_Layer11_0_MEMBER_0_FILL"/>
</g>

<g transform="matrix( 0.52655029296875, 0, 0, 0.52655029296875, -45.3,-138.4) ">
<use xlink:href="#ham_0_Layer10_0_MEMBER_0_FILL"/>
</g>

<g transform="matrix( 0.52655029296875, 0, 0, 0.52655029296875, -45.3,-138.4) ">
<use xlink:href="#ham_0_Layer9_0_MEMBER_0_MEMBER_0_FILL"/>
</g>

<g transform="matrix( 0.52655029296875, 0, 0, 0.52655029296875, -45.3,-138.4) ">
<use xlink:href="#ham_0_Layer9_0_MEMBER_1_MEMBER_0_FILL"/>
</g>

<g transform="matrix( 0.52655029296875, 0, 0, 0.52655029296875, -45.3,-138.4) ">
<use xlink:href="#ham_0_Layer8_0_MEMBER_0_MEMBER_0_FILL"/>
</g>

<g transform="matrix( 0.52655029296875, 0, 0, 0.52655029296875, -45.3,-138.4) ">
<use xlink:href="#ham_0_Layer8_0_MEMBER_1_MEMBER_0_FILL"/>
</g>

<g transform="matrix( 0.52655029296875, 0, 0, 0.52655029296875, -45.3,-138.4) ">
<use xlink:href="#ham_0_Layer7_0_MEMBER_0_1_STROKES" transform="matrix( 1.8991546630859375, 0, 0, 1.8991546630859375, 86.05,262.85) "/>
</g>

<g transform="matrix( 0.52655029296875, 0, 0, 0.52655029296875, -45.3,-138.4) ">
<use xlink:href="#ham_0_Layer6_0_MEMBER_0_MEMBER_0_FILL"/>
</g>

<g transform="matrix( 0.52655029296875, 0, 0, 0.52655029296875, -45.3,-138.4) ">
<use xlink:href="#ham_0_Layer6_0_MEMBER_1_MEMBER_0_FILL"/>
</g>

<g transform="matrix( 0.52655029296875, 0, 0, 0.52655029296875, -45.3,-138.4) ">
<use xlink:href="#ham_0_Layer5_0_MEMBER_0_FILL"/>
</g>

<g transform="matrix( 0.52655029296875, 0, 0, 0.52655029296875, -45.3,-138.4) ">
<use xlink:href="#ham_0_Layer4_0_MEMBER_0_FILL"/>
</g>

<g transform="matrix( 0.52655029296875, 0, 0, 0.52655029296875, -45.3,-138.4) ">
<use xlink:href="#ham_0_Layer3_0_MEMBER_0_FILL"/>
</g>

<g transform="matrix( 0.52655029296875, 0, 0, 0.52655029296875, -25.3,-118.4) ">
<use xlink:href="#ham_0_Layer2_0_MEMBER_0_FILL"/>
</g>

<g transform="matrix( 0.52655029296875, 0, 0, 0.52655029296875, -45.3,-138.4) ">
<use xlink:href="#ham_0_Layer1_0_MEMBER_0_FILL"/>
</g>
</g>
</svg>
